<svg width="16" height="15" fill="none" xmlns="http://www.w3.org/2000/svg"><path d="M1 1l1.499.26.694 8.266c.055.675.62 1.194 1.297 1.191h7.86a1.297 1.297 0 001.286-1.114l.684-4.725a.967.967 0 00-.818-1.094c-.046-.007-10.763-.01-10.763-.01m6.457 2.663h1.998" stroke="#000" stroke-width="1.5" stroke-linecap="round" stroke-linejoin="round"/><path fill-rule="evenodd" clip-rule="evenodd" d="M4.174 13.215a.392.392 0 110 .784.392.392 0 010-.784zm8.128 0a.393.393 0 110 .785.393.393 0 010-.785z" fill="#000" stroke="#000" stroke-width="1.5" stroke-linecap="round" stroke-linejoin="round"/></svg>