<svg width="13" height="14" fill="none" xmlns="http://www.w3.org/2000/svg"><path fill-rule="evenodd" clip-rule="evenodd" d="M9.388.538v.525c1.928.15 3.202 1.465 3.204 3.48l.008 5.898c.003 2.197-1.377 3.548-3.59 3.552L3.606 14C1.408 14.003.01 12.619.008 10.416L0 4.586C-.003 2.56 1.226 1.249 3.154 1.072V.546a.522.522 0 01.531-.539c.304 0 .532.23.533.538v.49l4.106-.006V.54A.521.521 0 018.853 0c.298 0 .533.23.534.538zM1.065 4.803l10.464-.014v-.245c-.03-1.504-.785-2.293-2.14-2.41l.001.538c0 .3-.234.54-.531.54a.527.527 0 01-.533-.539v-.566l-4.106.005v.566c0 .302-.227.54-.53.54a.526.526 0 01-.534-.538v-.54c-1.348.136-2.094.928-2.092 2.445l.001.218zm7.503 3.18v.008a.57.57 0 101.14-.037.58.58 0 00-.574-.559.58.58 0 00-.566.588zm.57 3.141a.594.594 0 01-.574-.594.583.583 0 01.566-.596h.007a.59.59 0 01.588.594.591.591 0 01-.586.596zM5.72 7.994a.575.575 0 00.596.56.576.576 0 00.545-.603.571.571 0 00-.575-.56.597.597 0 00-.566.603zm.598 3.099a.576.576 0 01-.595-.56c0-.32.248-.587.566-.601a.57.57 0 01.575.558.576.576 0 01-.546.603zM2.873 8.019a.575.575 0 00.595.559.575.575 0 00.545-.603.57.57 0 00-.575-.559.597.597 0 00-.565.603zm.598 3.078a.575.575 0 01-.595-.56c0-.321.248-.588.566-.602a.57.57 0 01.574.559.575.575 0 01-.545.603z" fill="#76A713"/></svg>