<svg width="15" height="10" fill="none" xmlns="http://www.w3.org/2000/svg"><path fill-rule="evenodd" clip-rule="evenodd" d="M6.53 5.005v.296c.01 1.17.081 2.214.203 2.876 0 .012.133.668.217.887.133.316.373.584.674.753.24.121.493.183.758.183.208-.01.55-.114.796-.202l.203-.078c1.347-.535 3.923-2.284 4.909-3.353l.073-.075.324-.35c.205-.268.313-.596.313-.948 0-.316-.096-.632-.29-.887a2.985 2.985 0 00-.232-.279l-.316-.33C13.075 2.396 10.72.852 9.5.34 9.5.329 8.742.012 8.38 0h-.047c-.553 0-1.07.316-1.335.826-.072.14-.141.413-.194.653l-.095.453c-.108.73-.18 1.847-.18 3.073zm-5.277-1.27C.56 3.735 0 4.3 0 5c0 .698.56 1.265 1.253 1.265l3.082-.273A.987.987 0 005.318 5a.988.988 0 00-.983-.993l-3.082-.272z" fill="#76A713"/></svg>