<svg width="20" height="16" fill="none" xmlns="http://www.w3.org/2000/svg"><path fill-rule="evenodd" clip-rule="evenodd" d="M14.939 0c1.341 0 2.631.471 3.58 1.316C19.469 2.16 20 3.298 20 4.49v7.022C20 13.991 17.73 16 14.939 16H5.06C2.269 16 0 13.991 0 11.511V4.49C0 2.009 2.259 0 5.06 0h9.879zm1.591 5.813l.08-.07a.63.63 0 00-.011-.89.885.885 0 00-.529-.23.819.819 0 00-.561.177L11 8a1.72 1.72 0 01-2 0L4.5 4.8c-.311-.204-.741-.178-1 .062-.27.24-.3.622-.071.89l.131.115 4.55 3.155a3.4 3.4 0 001.95.605c.709 0 1.4-.214 1.959-.605l4.511-3.209z" fill="#76A713"/></svg>