<svg width="58" height="52" fill="none" xmlns="http://www.w3.org/2000/svg"><path d="M57.811 1.73c-3.11 5.15-6.413 10.204-9.523 15.354-.583.972-2.235.584-2.138-.583 0-2.235.097-4.373.097-6.608-1.554 1.652-1.943 3.596-2.235 5.928-.194.972-.583 2.04-1.652 2.332-1.651.486-3.498-1.166-4.761-2.04-3.207-2.236-6.122-4.86-9.62-6.706-4.082-2.041-4.179.874-3.304 4.081.874 3.402 2.429 6.803 4.178 9.816 3.11 5.248 6.705 10.69 7.58 16.813.486 3.401-1.264 8.552-5.54 8.358-5.247-.195-11.272-4.082-14.673-7.97-1.943-1.943-13.021-16.52-14.09-8.163-.777 6.123 4.276 13.606 7.288 18.66.389.68-.583 1.36-1.069.777C4.56 47.114 1.547 41.186.187 35.258c-.68-3.207.388-9.136 5.053-7.872 5.441 1.458 9.037 7.58 12.535 11.662 2.138 2.624 5.54 4.568 8.454 6.123 6.22 3.304 9.038-1.555 7.483-7.192-1.944-6.9-6.9-12.537-9.718-19.048-.971-2.333-4.47-10.107-.68-12.051 4.373-2.235 10.203 3.304 13.313 5.734-.194-.097 4.956 4.082 5.247 3.207.292-.875.292-1.944.487-2.916.388-1.846 1.166-3.304 2.429-4.47a26.49 26.49 0 01-5.539-.292c-.972-.194-1.069-1.652-.291-2.138 5.538-3.11 11.758-3.887 17.685-5.928.875-.389 1.75.777 1.166 1.652zM47.316 6.685c.583 0 .778.485.68.874.292.195.486.486.486.875v3.887c1.944-3.11 3.887-6.123 5.83-9.232-3.692 1.069-7.481 1.846-10.98 3.304 1.263.097 2.624.194 3.984.292z" fill="#fff" fill-opacity=".5"/></svg>