<svg width="81" height="86" fill="none" xmlns="http://www.w3.org/2000/svg"><path d="M78.232 16.249c-7.119 2.057-14.184 4.377-21.302 6.435-1.342.384-1.407 2.473.012 2.73 2.659.712 5.233 1.278 7.892 1.99-2.46 1.324-4.897 1.167-7.765.77-1.218-.079-2.613.043-3.3 1.222-1.105 1.81.271 4.533.91 6.315 1.636 4.528 3.828 8.833 4.91 13.583 1.127 5.507-2.373 4.693-5.91 2.63-3.767-2.125-7.318-5.059-10.344-8.1-5.252-5.372-10.58-11.385-17.585-14.377-3.891-1.662-10.576-1.223-11.708 3.926-1.441 6.305 1.262 14.712 4.803 19.998 1.692 2.931 15.502 20.758 5.22 19.365C16.532 71.71 9.241 63.313 4.19 58.118c-.685-.68-1.804.26-1.266 1.024 4.341 5.995 10.433 11.469 17.052 14.977 3.598 1.832 10.992 2.45 10.976-3.502 0-6.94-6.137-13.169-9.878-18.632-2.44-3.38-3.668-8.046-4.588-12.01-1.948-8.452 4.73-10.256 10.94-6.61 7.59 4.512 12.715 12.205 19.563 17.633 2.464 1.9 10.598 8.54 14.119 4.651 4.053-4.49-.679-13.193-2.578-17.666.054.262-3.275-7.198-2.142-7.266 1.134-.068 2.405.273 3.623.351 2.32.127 4.303-.334 6.093-1.465a32.635 32.635 0 00-1.419 6.683c-.079 1.218 1.625 1.798 2.45 1.028 5.466-5.598 8.373-12.75 12.69-19.151.742-.917-.367-2.33-1.593-1.914zM68.99 27.155c.186-.694-.33-1.08-.823-1.088-.139-.409-.424-.733-.886-.857-1.503-.403-3.122-.836-4.624-1.24 4.319-1.32 8.522-2.672 12.842-3.993-2.45 4.053-4.582 8.314-7.432 12.01.287-1.533.605-3.182.923-4.832z" fill="#76A713"/></svg>